<svg width="176" height="35" viewBox="0 0 176 35" fill="none" xmlns="http://www.w3.org/2000/svg">
<path d="M7.04001 16.4329C7.04001 11.2468 11.2426 7.04266 16.4267 7.04266H166.613C171.797 7.04266 176 11.2468 176 16.4329V18.7805C176 23.9666 171.797 28.1707 166.613 28.1707H16.4267C11.2426 28.1707 7.04001 23.9666 7.04001 18.7805V16.4329Z" fill="#FEC14E"/>
<path d="M150.054 0.465759H158.268V22.4406C158.268 24.9802 157.664 27.1926 156.456 29.0779C155.248 30.9521 153.563 32.4049 151.401 33.4363C149.239 34.4566 146.728 34.9667 143.868 34.9667C140.975 34.9667 138.447 34.4566 136.285 33.4363C134.124 32.4049 132.444 30.9521 131.247 29.0779C130.05 27.1926 129.451 24.9802 129.451 22.4406V0.465759H137.682V21.7253C137.682 22.9008 137.937 23.9488 138.447 24.8693C138.968 25.7897 139.694 26.5106 140.625 27.0318C141.557 27.5531 142.638 27.8137 143.868 27.8137C145.099 27.8137 146.174 27.5531 147.094 27.0318C148.025 26.5106 148.751 25.7897 149.272 24.8693C149.793 23.9488 150.054 22.9008 150.054 21.7253V0.465759Z" fill="#4C4279"/>
<path d="M97.2088 7.15302V0.465759H125.993V7.15302H115.667V34.5342H107.552V7.15302H97.2088Z" fill="#4C4279"/>
<path d="M66.0807 7.15302V0.465759H94.8649V7.15302H84.5385V34.5342H76.4237V7.15302H66.0807Z" fill="#4C4279"/>
<path d="M36.7527 34.5342V0.465759H50.8205C53.3702 0.465759 55.5707 0.925994 57.4221 1.84646C59.2845 2.75584 60.7201 4.06446 61.7289 5.77232C62.7377 7.46909 63.2421 9.48192 63.2421 11.8108C63.2421 14.173 62.7266 16.1803 61.6956 17.8327C60.6646 19.474 59.2013 20.7272 57.3057 21.5922C55.41 22.4461 53.1651 22.8731 50.5711 22.8731H41.6748V16.3854H49.0412C50.2828 16.3854 51.3194 16.2246 52.1508 15.903C52.9933 15.5703 53.6307 15.0713 54.0631 14.4059C54.4954 13.7294 54.7116 12.8644 54.7116 11.8108C54.7116 10.7573 54.4954 9.8867 54.0631 9.19913C53.6307 8.50046 52.9933 7.97923 52.1508 7.63544C51.3083 7.28056 50.2718 7.10312 49.0412 7.10312H44.9839V34.5342H36.7527ZM55.9255 18.9639L64.4061 34.5342H55.4266L47.1123 18.9639H55.9255Z" fill="#4C4279"/>
<path d="M32.509 17.5C32.509 21.2484 31.7884 24.4257 30.3472 27.0318C28.9061 29.638 26.955 31.6176 24.494 32.9705C22.044 34.3235 19.2947 35 16.2462 35C13.1865 35 10.4317 34.318 7.98174 32.9539C5.53179 31.5898 3.58624 29.6103 2.14509 27.0152C0.71503 24.4091 0 21.2373 0 17.5C0 13.7516 0.71503 10.5743 2.14509 7.96816C3.58624 5.36201 5.53179 3.38245 7.98174 2.02947C10.4317 0.676489 13.1865 0 16.2462 0C19.2947 0 22.044 0.676489 24.494 2.02947C26.955 3.38245 28.9061 5.36201 30.3472 7.96816C31.7884 10.5743 32.509 13.7516 32.509 17.5ZM24.0949 17.5C24.0949 15.282 23.7789 13.4078 23.147 11.8774C22.5262 10.347 21.6283 9.18805 20.4532 8.40067C19.2892 7.61328 17.8869 7.21958 16.2462 7.21958C14.6166 7.21958 13.2142 7.61328 12.0391 8.40067C10.864 9.18805 9.96054 10.347 9.32865 11.8774C8.70785 13.4078 8.39745 15.282 8.39745 17.5C8.39745 19.718 8.70785 21.5922 9.32865 23.1226C9.96054 24.653 10.864 25.8119 12.0391 26.5993C13.2142 27.3867 14.6166 27.7804 16.2462 27.7804C17.8869 27.7804 19.2892 27.3867 20.4532 26.5993C21.6283 25.8119 22.5262 24.653 23.147 23.1226C23.7789 21.5922 24.0949 19.718 24.0949 17.5Z" fill="#4C4279"/>
</svg>
