<svg width="92" height="73" viewBox="0 0 92 73" fill="none" xmlns="http://www.w3.org/2000/svg">
<path d="M4 6C4 2.68629 6.68629 0 10 0H63C66.3137 0 69 2.68629 69 6C69 9.31371 66.3137 12 63 12H10C6.68629 12 4 9.31371 4 6Z" fill="#4C4279"/>
<path d="M4 20C4 16.6863 6.68629 14 10 14H63C66.3137 14 69 16.6863 69 20C69 23.3137 66.3137 26 63 26H10C6.68629 26 4 23.3137 4 20Z" fill="#C22916"/>
<path d="M4 34C4 30.6863 6.68629 28 10 28H63C66.3137 28 69 30.6863 69 34C69 37.3137 66.3137 40 63 40H10C6.68629 40 4 37.3137 4 34Z" fill="#FD4B1F"/>
<path d="M4 48C4 44.6863 6.68629 42 10 42H63C66.3137 42 69 44.6863 69 48C69 51.3137 66.3137 54 63 54H10C6.68629 54 4 51.3137 4 48Z" fill="#FA9B2D"/>
<path d="M4 62C4 58.6863 6.68629 56 10 56H63C66.3137 56 69 58.6863 69 62C69 65.3137 66.3137 68 63 68H10C6.68629 68 4 65.3137 4 62Z" fill="#FEC14E"/>
<path d="M87.225 52.2706H92V65.0395C92 66.5152 91.6488 67.8008 90.9464 68.8963C90.244 69.9853 89.2645 70.8295 88.0079 71.4288C86.7513 72.0216 85.2918 72.3181 83.6292 72.3181C81.9473 72.3181 80.4781 72.0216 79.2215 71.4288C77.9649 70.8295 76.9886 69.9853 76.2927 68.8963C75.5967 67.8008 75.2487 66.5152 75.2487 65.0395V52.2706H80.0334V64.6239C80.0334 65.3069 80.1816 65.9159 80.4781 66.4507C80.7809 66.9856 81.203 67.4045 81.7443 67.7073C82.2856 68.0102 82.9139 68.1616 83.6292 68.1616C84.3445 68.1616 84.9696 68.0102 85.5044 67.7073C86.0457 67.4045 86.4678 66.9856 86.7707 66.4507C87.0735 65.9159 87.225 65.3069 87.225 64.6239V52.2706Z" fill="#4C4279"/>
<path d="M56.5066 56.1564V52.2706H73.2386V56.1564H67.2359V72.0667H62.5189V56.1564H56.5066Z" fill="#4C4279"/>
<path d="M38.4122 56.1564V52.2706H55.1441V56.1564H49.1415V72.0667H44.4244V56.1564H38.4122Z" fill="#4C4279"/>
<path d="M21.364 72.0667V52.2706H29.5415C31.0236 52.2706 32.3028 52.5381 33.3789 53.0729C34.4615 53.6013 35.296 54.3617 35.8824 55.3541C36.4689 56.34 36.7621 57.5096 36.7621 58.8629C36.7621 60.2355 36.4624 61.4018 35.8631 62.362C35.2638 63.3157 34.4132 64.0439 33.3113 64.5465C32.2093 65.0427 30.9044 65.2908 29.3965 65.2908H24.2252V61.5211H28.5072C29.229 61.5211 29.8315 61.4276 30.3148 61.2407C30.8045 61.0474 31.1751 60.7574 31.4264 60.3708C31.6777 59.9777 31.8034 59.4751 31.8034 58.8629C31.8034 58.2507 31.6777 57.7448 31.4264 57.3453C31.1751 56.9393 30.8045 56.6365 30.3148 56.4367C29.825 56.2305 29.2225 56.1274 28.5072 56.1274H26.1487V72.0667H21.364ZM32.509 63.0193L37.4387 72.0667H32.219L27.386 63.0193H32.509Z" fill="#4C4279"/>
<path d="M18.8972 62.1687C18.8972 64.3468 18.4783 66.193 17.6406 67.7074C16.8028 69.2217 15.6687 70.372 14.2381 71.1581C12.814 71.9443 11.2159 72.3374 9.44375 72.3374C7.66519 72.3374 6.06385 71.9411 4.63971 71.1485C3.21558 70.3559 2.08465 69.2056 1.24692 67.6977C0.415641 66.1833 0 64.3403 0 62.1687C0 59.9906 0.415641 58.1444 1.24692 56.63C2.08465 55.1157 3.21558 53.9654 4.63971 53.1793C6.06385 52.3931 7.66519 52 9.44375 52C11.2159 52 12.814 52.3931 14.2381 53.1793C15.6687 53.9654 16.8028 55.1157 17.6406 56.63C18.4783 58.1444 18.8972 59.9906 18.8972 62.1687ZM14.0061 62.1687C14.0061 60.8799 13.8225 59.7909 13.4552 58.9016C13.0943 58.0123 12.5723 57.3389 11.8893 56.8814C11.2126 56.4238 10.3975 56.1951 9.44375 56.1951C8.49647 56.1951 7.6813 56.4238 6.99823 56.8814C6.31516 57.3389 5.78997 58.0123 5.42266 58.9016C5.0618 59.7909 4.88136 60.8799 4.88136 62.1687C4.88136 63.4575 5.0618 64.5466 5.42266 65.4358C5.78997 66.3251 6.31516 66.9985 6.99823 67.456C7.6813 67.9136 8.49647 68.1423 9.44375 68.1423C10.3975 68.1423 11.2126 67.9136 11.8893 67.456C12.5723 66.9985 13.0943 66.3251 13.4552 65.4358C13.8225 64.5466 14.0061 63.4575 14.0061 62.1687Z" fill="#4C4279"/>
</svg>
